<?xml version="1.0" encoding="utf-8"?>
<!-- Generator: Adobe Illustrator 23.0.6, SVG Export Plug-In . SVG Version: 6.00 Build 0)  -->
<svg version="1.1" id="Layer_1" xmlns="http://www.w3.org/2000/svg" xmlns:xlink="http://www.w3.org/1999/xlink" x="0px" y="0px"
	 width="864px" height="864px" viewBox="0 0 864 864" enable-background="new 0 0 864 864" xml:space="preserve">
<g>
	<path d="M824.1929,183.1196C572.4918,94.9207,438.6298,380.324,437.141,381.545c2.1237-70.088,20.5217-123.0472,36.1084-155.8161
		c14.4626-30.4047,28.988-49.0631,34.1219-55.2042c1.0952,0.4996,2.3083,0.7853,3.5907,0.7853c4.789,0,8.6711-3.8822,8.6711-8.6711
		c0-4.7889-3.8821-8.6711-8.6711-8.6711c-4.7888,0-8.6709,3.8822-8.6709,8.6711c0,0.9439,0.1558,1.8504,0.4348,2.7012
		c-4.8394,5.6529-20.1908,24.8379-35.6943,57.4314c-14.6744,30.8503-31.7934,79.2567-36.0052,142.6995l-0.0092,0.1275
		c-0.3085,4.6663-0.5483,9.4119-0.7108,14.2399l-2.3266-0.3278c-0.1059-4.5612-0.2779-9.053-0.515-13.4736l-0.0541-0.9677
		c-3.6697-65.7021-21.2535-115.7069-36.2801-147.2974c-16.8755-35.4781-33.5619-55.0587-36.7152-58.603
		c2.1125-1.5814,3.4862-4.0961,3.4862-6.9382c0-4.7889-3.8824-8.6711-8.6711-8.6711c-4.7888,0-8.6709,3.8822-8.6709,8.6711
		c0,4.3465,3.2013,7.9354,7.3728,8.5634c-0.0361,0.8828,0.265,1.7793,0.9131,2.4789c0.1793,0.1944,18.175,19.8414,36.0675,57.4566
		c15.9929,33.6227,34.9453,88.5005,36.2406,161.328c-1.4807-1.2476-135.3149-284.2064-387.0158-198.3961
		c-16.639,3.0227-29.336,7.907-6.9074,29.406c11.4219,9.1958,25.3242,17.6098,25.0373,30.4962
		c0.2258,6.8971,3.5403,13.7943,12.9516,20.6922c5.5382,6.6275,12.3459,12.7199,9.4977,22.8718
		c15.232,6.8155,17.1265,17.8348,13.8146,30.4951c12.4238,5.2354,16.0871,15.993,10.3606,32.6743
		c9.4929,6.1798,18.5658,13.0654,12.9519,44.6543c13.1845,4.8863,18.5873,16.3163,18.1318,32.6743
		c16.1779,1.0112,25.9299,10.1297,28.4927,28.317c11.7559-3.3041,22.4583,1.3712,31.9455,15.2468
		c0.8136,3.2397,17.6673,15.8347,30.2197-9.8027c-4.2071,13.0699-7.2941,26.14-4.3183,39.2088
		c-32.5681,18.5498-49.0054,64.1791-48.2629,90.4819c11.1238,5.573,23.6919,12.3966,12.0013,46.7477
		c15.6175,6.7466,19.9143,22.4216,17.2677,43.5649c41.1353,5.3233,39.6946,39.0513,39.6946,39.0513
		c16.0442-13.1817,28.8776-2.2708,36.2854-2.0206c8.9224,3.8353,17.8449,1.8141,26.7651-8.7137
		c6.9041-6.5527,13.8997-12.5305,23.3125-3.2674c12.6648,2.6224,36.4746-10.23,49.2147-52.2775
		c12.7398-42.0472,39.717-179.7018,39.717-179.7018s-2.3095,21.9408,3.2657,29.4937c-2.9379,21.3751,4.68,37.7972,4.68,37.7972
		c0.1409-0.1917-4.68,30.4858,10.787,27.9553c15.4673-2.5303,9.8736-29.612,10.016-29.4203c0,0,6.3846-15.1036,3.4478-36.4788
		c4.3847-13.3699,1.9724-27.4781,1.5681-29.6041c-0.0339-0.1732-0.0558-0.2847-0.0558-0.2847s0.0216,0.1045,0.0558,0.2847
		c1.3081,6.66,27.2448,138.4366,39.6613,179.4175c12.7401,42.0472,36.5499,54.9,49.2149,52.2775
		c9.4125-9.2634,16.4082-3.2856,23.3123,3.2674c8.9202,10.5278,17.8427,12.5487,26.7654,8.7134
		c7.4075-0.2499,20.2412-11.1608,36.2852,2.0206c0,0-1.4407-33.7277,39.6946-39.051c-2.6462-21.1434,1.6503-36.8183,17.268-43.5652
		c-11.6906-34.3508,0.8775-41.1748,12.001-46.7474c0.7427-26.3029-15.6948-71.9321-48.2626-90.4819
		c2.9755-13.0688-0.1115-26.1389-4.3186-39.2088c12.5524,25.6371,29.406,13.0424,30.2196,9.8027
		c9.4873-13.8756,20.1897-18.5509,31.9456-15.2471c2.5627-18.187,12.3151-27.3058,28.4927-28.317
		c-0.4556-16.3577,4.9473-27.7878,18.1321-32.6743c-5.6142-31.5886,3.4587-38.4742,12.9516-44.654
		c-5.7265-16.6816-2.0632-27.4392,10.3606-32.6745c-3.312-12.66-1.4174-23.6793,13.8149-30.4948
		c-2.8486-10.1519,3.9591-16.2443,9.4973-22.8718c9.4114-6.8982,12.7258-13.7952,12.952-20.6923
		c-0.2869-12.8864,13.6151-21.3004,25.037-30.4962C853.5289,191.0267,840.832,186.1424,824.1929,183.1196z M324.0356,569.5011
		c-17.6261,20.0291-36.326,2.5317-25.0406-26.6827c35.309-51.3882,72.3694-88.4131,112.2439-102.3781
		c-38.41,33.0483-64.225,79.5374-87.2036,129.0586L324.0356,569.5011z M274.815,554.7981l0.0011,0.0011
		c-30.7119,25.5789-73.9339-12.3112-40.5802-54.4556c59.3306-48.2139,119.1113-75.0608,179.5873-68.6137
		C345.7099,462.9904,307.9092,506.3741,274.815,554.7981z M246.3201,480.7325h0.0048
		c-11.5012,10.7425-41.1837-0.6531-5.1802-22.3266c56.987-25.9666,113.9709-44.6884,170.9571-36.4866
		C352.7367,426.007,300.1361,436.8336,246.3201,480.7325z M248.4867,384.8931c-13.5369-4.1797-24.5907-33.2974,3.0206-40.8428
		c27.8637-3.343,64.9241,3.9073,148.935,65.3474h0.0034c-40.7901,3.3349-82.386,9.7226-124.3306,17.4241
		c-33.9987-1.5219-37.7673-24.4909-15.9733-34.8504c6.8741-2.6244,13.7678-4.1427,20.7509-4.884
		C270.0912,387.2746,259.2891,386.1763,248.4867,384.8931z M223.0124,218.2541l0.0092,0.0048
		c74.7246,19.7041,141.0293,68.8558,187.3565,190.5925c-50.8842-52.0755-118.4859-78.4599-192.9796-92.0313
		C144.9072,308.787,161.9488,200.0108,223.0124,218.2541z M86.5255,188.2365c13.2262-7.247,46.6923-10.4455,74.7016-7.1402
		c28.0094,3.3061,40.0087,11.8718,26.7836,19.1177c-13.2259,7.247-46.6922,10.4455-74.7013,7.1391
		C85.2997,204.0492,73.3007,195.4823,86.5255,188.2365z M108.4369,227.0522c6.9335-9.3178,24.482-13.4321,39.1665-9.1801
		c14.6856,4.2511,20.9767,15.2666,14.0432,24.5842c-6.9335,9.3188-24.4819,13.4331-39.1676,9.1809
		C107.7944,247.3872,101.5034,236.3717,108.4369,227.0522z M114.1482,272.5189c4.9745-8.51,18.8855-13.7756,31.0459-11.7511
		c12.1579,2.0268,17.9892,10.5797,13.0144,19.0905c-4.9767,8.512-18.8866,13.7754-31.0459,11.7519
		C115.0025,289.5846,109.1723,281.0306,114.1482,272.5189z M129.9148,305.8421c5.0874-8.2682,17.8544-11.7696,28.4949-7.8149
		c10.6394,3.9521,15.1449,13.8754,10.0577,22.145c-5.0874,8.2685-17.8544,11.7685-28.4938,7.8152
		C129.3342,324.0327,124.8276,314.1106,129.9148,305.8421z M134.6671,366.8213c-10.251-7.9489-2.846-21.4902,16.5278-30.2216
		c19.3738-8.7316,43.4187-9.3626,53.6694-1.414c10.2499,7.9511,2.846,21.4936-16.5278,30.2241v-0.0003
		C168.9627,374.1411,144.9178,374.7732,134.6671,366.8213z M174.6747,400.7162c-7.1677-7.138-1.8856-19.0284,11.7928-26.5381
		c13.6759-7.5087,30.5982-7.8096,37.7673-0.6702c7.1688,7.138,1.8853,19.0272-11.7917,26.537
		C198.7649,407.5536,181.8438,407.8542,174.6747,400.7162z M199.8562,430.4683c-4.733-5.406-1.3098-14.4974,7.6434-20.2945
		c8.9524-5.7943,20.0616-6.1103,24.7946-0.7044c4.733,5.4077,1.3098,14.4991-7.6432,20.2936
		C215.6987,435.5582,204.5883,435.8759,199.8562,430.4683z M219.0084,446.8599c-1.2162-5.599,4.408-11.6275,12.5538-13.4557
		c8.1467-1.8282,15.7461,1.235,16.9623,6.8351c1.2154,5.599-4.4077,11.6264-12.5558,13.4557
		C227.8219,455.5218,220.2238,452.4612,219.0084,446.8599z M197.707,531.6772c5.2802-4.6078,12.0663-3.6877,15.1493,2.0556
		c3.0808,5.7413,1.2958,14.1447-3.9872,18.7518c-5.2813,4.6089-12.0671,3.6885-15.149-2.054
		C190.6373,544.6896,192.424,536.2861,197.707,531.6772z M200.9366,589.3549c-5.0759,6.4849-12.4849,7.0427-16.5345,1.2451
		c-4.0499-5.7965-3.217-15.7646,1.8601-22.2473c5.0759-6.4838,12.4837-7.0416,16.5345-1.2451
		C206.8468,572.9063,206.0114,582.873,200.9366,589.3549z M229.6214,615.8961c-8.9421,10.4455-18.7723,11.1213-21.9385,1.5127
		c-3.1674-9.6111,1.5194-25.8876,10.4603-36.3317c8.9421-10.4443,18.7712-11.1227,21.9397-1.5127
		C243.2502,589.1733,238.5635,605.4495,229.6214,615.8961z M240.0739,643.2849c-1.3874-15.3401,6.9142-41.7556,18.5313-58.9625
		c11.6183-17.2036,22.1761-18.7173,23.5635-3.3798c1.3896,15.3391-6.9119,41.7553-18.5313,58.9611
		C252.0191,657.1109,241.4613,658.6233,240.0739,643.2849z M290.8312,688.6732c-5.9697,9.7363-15.5718,12.7771-21.4337,6.7786
		c-5.8607-5.9966-5.7719-18.7731,0.1944-28.5148c5.9683-9.738,15.571-12.7742,21.4345-6.7771
		C296.8855,666.1578,296.797,678.9329,290.8312,688.6732z M282.7092,642.6903c-4.633-8.6106-2.6361-25.7441,4.4596-38.2427
		c7.0943-12.4995,16.616-15.6553,21.251-7.0439c4.633,8.6107,2.635,25.7441-4.4582,38.2425
		C296.8636,648.1448,287.343,651.3007,282.7092,642.6903z M349.9366,662.6147v0.0036
		c-13.8894,31.6393-46.4202,42.5081-41.0117-9.8041c20.6971-82.1562,64.8658-180.8035,112.243-208.0244
		C388.613,507.6892,370.1537,586.0059,349.9366,662.6147z M635.3089,217.7174l0.0092-0.0046
		c61.0635-18.2433,78.1055,90.5326,5.6141,98.5658c-74.494,13.5714-142.0954,39.956-192.9799,92.0315
		C494.2798,286.573,560.5843,237.4217,635.3089,217.7174z M598.1888,391.4301c21.7939,10.3592,18.0253,33.3285-15.9733,34.8501
		c-41.9447-7.7014-83.5403-14.0889-124.3307-17.4238h0.0034c84.011-61.4401,121.0714-68.6905,148.935-65.3477
		c27.6112,7.5454,16.5575,36.6634,3.0206,40.843c-10.8021,1.2829-21.6046,2.3812-32.4059,2.194
		C584.421,387.2872,591.3147,388.8055,598.1888,391.4301z M617.186,457.8646c36.0034,21.6732,6.321,33.069-5.1801,22.3263h0.0045
		c-49.2441-42.4723-106.4165-54.7254-165.7816-58.8132C503.2149,413.1759,560.1988,431.8977,617.186,457.8646z M624.0946,499.8023
		c33.3537,42.1442-9.868,80.0344-40.5802,54.4556l0.0011-0.0012c-33.0942-48.424-70.8949-91.8076-139.0081-123.0682
		C504.9833,424.7412,564.764,451.5881,624.0946,499.8023z M447.0917,439.8987c39.8745,13.9653,76.9349,50.9901,112.2442,102.3784
		c11.2854,29.2141-7.4149,46.7115-25.0406,26.6827v-0.0025C511.317,519.4364,485.5017,472.9473,447.0917,439.8987z
		 M508.3939,662.0767v-0.0034c-20.2171-76.6088-38.6762-154.9254-71.2311-217.8253
		c47.3773,27.2212,91.546,125.8685,112.2428,208.0247C554.8144,704.5848,522.2833,693.716,508.3939,662.0767z M554.3692,635.1049
		c-7.0932-12.4986-9.0914-29.6321-4.4584-38.2424c4.6352-8.6118,14.1567-5.4559,21.2513,7.0438
		c7.0954,12.4986,9.0922,29.6321,4.4592,38.2425C570.9875,650.7593,561.4669,647.6035,554.3692,635.1049z M588.933,694.9104
		c-5.8618,5.9985-15.464,2.9575-21.4334-6.7788c-5.966-9.7403-6.0546-22.5151-0.1956-28.5131
		c5.8635-5.9971,15.4662-2.9609,21.4345,6.7772C594.7048,676.1373,594.7939,688.9138,588.933,694.9104z M618.2566,642.7433
		c-1.3874,15.3387-11.9453,13.8264-23.5632-3.3809c-11.6194-17.2059-19.9213-43.6224-18.5316-58.9611
		c1.3875-15.3376,11.9453-13.8239,23.5635,3.3798C611.3425,600.988,619.644,627.4034,618.2566,642.7433z M672.0684,567.8113
		c5.0771,6.4827,5.9103,16.4507,1.8601,22.247c-4.0496,5.798-11.4586,5.2401-16.5345-1.2451
		c-5.0745-6.4816-5.91-16.4485-1.86-22.247C659.5849,560.7695,666.9924,561.3273,672.0684,567.8113z M645.4745,533.1913
		c3.0828-5.743,9.8688-6.6631,15.149-2.0557c5.283,4.6092,7.0696,13.0128,3.9869,18.7538
		c-3.0819,5.7422-9.8677,6.6626-15.1488,2.0537h-0.0002C644.1784,547.3362,642.3934,538.9329,645.4745,533.1913z M640.1873,580.5355
		c8.9409,10.4443,13.6277,26.7205,10.4603,36.3317c-3.166,9.6088-12.9965,8.933-21.9385-1.5124
		c-8.9421-10.4466-13.6288-26.7231-10.4615-36.332C621.4161,569.4131,631.2452,570.0914,640.1873,580.5355z M639.3221,446.3186
		c-1.2155,5.6013-8.8135,8.6619-16.9604,6.8349c-8.1481-1.8293-13.7712-7.8564-12.5558-13.4554
		c1.2166-5.6004,8.8157-8.6633,16.9626-6.8351C634.9141,434.6911,640.5386,440.7193,639.3221,446.3186z M658.4743,429.927
		c-4.7322,5.4076-15.8425,5.0899-24.7946-0.7052c-8.9533-5.7946-12.3765-14.886-7.6434-20.2936
		c4.733-5.406,15.8425-5.0902,24.7946,0.7044C659.7841,415.4294,663.2073,424.521,658.4743,429.927z M683.6558,400.175
		c-7.1688,7.138-24.0902,6.8374-37.7684-0.6713v-0.0003c-13.677-7.5098-18.9606-19.399-11.7914-26.5367
		c7.1688-7.1394,24.0914-6.8388,37.7673,0.6702C685.5414,381.1466,690.8239,393.0367,683.6558,400.175z M723.6634,366.28
		c-10.2507,7.9519-34.2956,7.3199-53.6694-1.4118c-19.3735-8.7305-26.7777-22.2728-16.5278-30.2238
		c10.251-7.9489,34.2957-7.3176,53.6694,1.4138C726.5094,344.7897,733.9144,358.3311,723.6634,366.28z M718.3569,327.446
		c-10.6393,3.9533-23.4063,0.4531-28.4935-7.8152c-5.0874-8.2696-0.5819-18.1929,10.0574-22.1453
		c10.6405-3.9547,23.4075-0.4533,28.4949,7.8152C733.5032,313.5693,728.9963,323.4914,718.3569,327.446z M731.1679,291.0687
		c-12.1591,2.0237-26.0692-3.2399-31.0459-11.7516c-4.9748-8.5109,0.8565-17.0638,13.0146-19.0905
		c12.1602-2.0246,26.0711,3.2411,31.0459,11.7508C749.1582,280.4893,743.3281,289.0433,731.1679,291.0687z M735.8516,251.0959
		c-14.6856,4.2522-32.2341,0.1377-39.1676-9.181c-6.9335-9.3175-0.6424-20.3331,14.0432-24.5842
		c14.6845-4.2519,32.233-0.1376,39.1667,9.1801C756.8271,235.8303,750.5361,246.8459,735.8516,251.0959z M745.0214,206.8118
		c-28.0093,3.3062-61.4757,0.1079-74.7016-7.1391c-13.2249-7.246-1.2258-15.8117,26.7836-19.1179
		c28.0093-3.3051,61.4756-0.1068,74.7016,7.1404C785.0301,194.941,773.0308,203.5078,745.0214,206.8118z"/>
</g>
</svg>
