<?xml version="1.0" encoding="utf-8"?>
<!-- Svg Vector Icons : http://www.onlinewebfonts.com/icon -->
<!DOCTYPE svg PUBLIC "-//W3C//DTD SVG 1.1//EN" "http://www.w3.org/Graphics/SVG/1.1/DTD/svg11.dtd">
<svg version="1.1" xmlns="http://www.w3.org/2000/svg" xmlns:xlink="http://www.w3.org/1999/xlink" x="0px" y="0px" viewBox="0 0 1000 1000" enable-background="new 0 0 1000 1000" xml:space="preserve">
<metadata> Svg Vector Icons : http://www.onlinewebfonts.com/icon </metadata>
<g><g><path d="M968.5,131.5C887.6,57.7,706.4,10,506.9,10C316.4,10,148.3,52.7,33.6,130.2c-4.3,3-10.2,7-11.4,60.7c-2.8,129.8,36.8,466.6,464.6,789l13.8,10.1l12.7-10c387.1-291.8,457-595.9,464.1-751.2C977.5,228,981.1,143,968.5,131.5z M500.2,950.1C19.1,584.1,50.9,199.3,56.9,152.9c109.3-71.7,268.8-111,449.9-111c185.8,0,359.9,43.9,436.2,109.7C948.5,193.3,982,583.8,500.2,950.1z M920.4,169.8c5.8,58.6,20.2,416.5-420.1,756.4C418.9,863.3,353.1,799.9,299.8,738c86.6-45.3,138.9-111.6,138.9-111.6c63.1,20.8,138.1-63.1,138.1-63.1c28.9-18.5,21.5,57.9,21.5,57.9c-8.9,9.7-20.8,35-20.8,35l-36.4-1.5c-24.5,11.1-19.3,64.5-19.3,64.5c30.4,0,74.3-42.3,74.3-42.3c34.1-13.3,37.8-28.2,37.8-28.2v-82.4c0.7-51.3-5.1-52.6-19.3-53.5c-20.4-1.2-81.6-0.7-81.6-0.7c-10.4-17-14-89-8.2-118c19.6-96.3,89.8-63.8,89.8-63.8c8.2,80.2,90.6,83.1,90.6,83.1c6.7,62.3,39,36.6,53.5,31.2c21-7.9,16.4-20.8,16.4-20.8c-4.4-26.7-40.1-129.3-53.5-167.8c-11.9-34.1-42.8-69.7-61.6-86.9c0,0,4.6,13.4,3,17c-4.5,9.7-8.2,6-8.2,6c-72.7-63.1-141.8-45.3-141.8-45.3c35.6,2.2,49,30.4,49,30.4c-49-23.8-57.9-19.1-82.4-10.4c-62.3,22.1-121.7,20-121.7,20c21.5,29,58.6,28.3,58.6,28.3c-27.5,11.6-39.8,11.2-49,14c-44.5,14.1-56.4,48.3-56.4,48.3c32.7,0-25.2,75-25.2,75c40.1-22.3,48.5-13.8,47.5-13.4C289.6,357,277,389.7,277,389.7c-27.6,58.9-89.5,106.2-122.7,128.5C71.3,345,76.1,209.7,79.8,172.3C183.3,107.1,338,69.8,506.9,69.8C682.3,69.8,845.9,109.7,920.4,169.8z"/></g><g></g><g></g><g></g><g></g><g></g><g></g><g></g><g></g><g></g><g></g><g></g><g></g><g></g><g></g><g></g></g>
</svg>