<?xml version="1.0" encoding="UTF-8" standalone="no"?>
<!-- Created with Inkscape (http://www.inkscape.org/) -->

<svg
   xmlns:dc="http://purl.org/dc/elements/1.1/"
   xmlns:cc="http://creativecommons.org/ns#"
   xmlns:rdf="http://www.w3.org/1999/02/22-rdf-syntax-ns#"
   xmlns:svg="http://www.w3.org/2000/svg"
   xmlns="http://www.w3.org/2000/svg"
   xmlns:sodipodi="http://sodipodi.sourceforge.net/DTD/sodipodi-0.dtd"
   xmlns:inkscape="http://www.inkscape.org/namespaces/inkscape"
   width="1000"
   height="425.63599"
   viewBox="0 0 264.58332 112.61619"
   version="1.1"
   id="svg1844"
   inkscape:version="0.92.3 (2405546, 2018-03-11)"
   sodipodi:docname="Disney.svg">
  <defs
     id="defs1838">
    <clipPath
       id="clipPath18"
       clipPathUnits="userSpaceOnUse">
      <path
         inkscape:connector-curvature="0"
         id="path16"
         d="M 0,841.89 H 595.276 V 0 H 0 Z" />
    </clipPath>
    <clipPath
       id="clipPath3744"
       clipPathUnits="userSpaceOnUse">
      <path
         inkscape:connector-curvature="0"
         id="path3746"
         d="M 458.683,491.144 H 134.6 V 332.515 h 324.083 z" />
    </clipPath>
    <clipPath
       id="clipPath3704"
       clipPathUnits="userSpaceOnUse">
      <path
         inkscape:connector-curvature="0"
         id="path3706"
         d="M 458.683,491.144 H 134.6 V 332.515 h 324.083 z" />
    </clipPath>
    <clipPath
       id="clipPath3592"
       clipPathUnits="userSpaceOnUse">
      <path
         inkscape:connector-curvature="0"
         id="path3594"
         d="M 458.683,491.144 H 134.6 V 332.515 h 324.083 z" />
    </clipPath>
    <clipPath
       id="clipPath3552"
       clipPathUnits="userSpaceOnUse">
      <path
         inkscape:connector-curvature="0"
         id="path3554"
         d="M 458.683,491.144 H 134.6 V 332.515 h 324.083 z" />
    </clipPath>
    <clipPath
       id="clipPath3440"
       clipPathUnits="userSpaceOnUse">
      <path
         inkscape:connector-curvature="0"
         id="path3442"
         d="M 458.683,491.144 H 134.6 V 332.515 h 324.083 z" />
    </clipPath>
    <clipPath
       id="clipPath3396"
       clipPathUnits="userSpaceOnUse">
      <path
         inkscape:connector-curvature="0"
         id="path3398"
         d="M 458.683,491.144 H 134.6 V 332.515 h 324.083 z" />
    </clipPath>
  </defs>
  <sodipodi:namedview
     id="base"
     pagecolor="#ffffff"
     bordercolor="#666666"
     borderopacity="1.0"
     inkscape:pageopacity="0.0"
     inkscape:pageshadow="2"
     inkscape:zoom="0.7"
     inkscape:cx="231.1808"
     inkscape:cy="234.26043"
     inkscape:document-units="px"
     inkscape:current-layer="layer1"
     showgrid="false"
     inkscape:window-width="1920"
     inkscape:window-height="1018"
     inkscape:window-x="-8"
     inkscape:window-y="-8"
     inkscape:window-maximized="1"
     units="px" />
  <metadata
     id="metadata1841">
    <rdf:RDF>
      <cc:Work
         rdf:about="">
        <dc:format>image/svg+xml</dc:format>
        <dc:type
           rdf:resource="http://purl.org/dc/dcmitype/StillImage" />
        <dc:title></dc:title>
      </cc:Work>
    </rdf:RDF>
  </metadata>
  <g
     inkscape:label="Layer 1"
     inkscape:groupmode="layer"
     id="layer1"
     transform="translate(0,-184.38381)">
    <path
       style="fill-opacity:1;fill-rule:nonzero;stroke:none;stroke-width:9.09721279"
       d="m 833.63281,153.16797 c -8.95699,0.14335 -30.37047,2.62912 -35.27929,3.22656 -6.01777,0.74653 -11.97198,1.54016 -18.29883,2.46875 -5.07239,0.71928 -21.12589,3.80542 -23.16211,4.46094 -5.5451,1.72067 -7.30857,4.66951 -4.62696,9.98633 2.23628,4.54299 5.97085,6.95597 10.91602,8.82226 4.42696,1.67516 12.69922,3.58789 12.69922,3.58789 0,0 -3.10886,8.60344 -5.09961,14.24805 -1.42723,4.01488 -3.10001,9.0209 -5.70898,9.6582 -0.43631,0.12586 -0.88047,0.12092 -1.48047,0.17383 -6.54505,0.69196 -10.45398,4.2688 -10.28125,9.3125 0.14547,3.30482 2.61803,13.59359 2.44531,15.12305 -0.0904,0.67374 -0.21861,1.20057 -0.48242,1.81055 -4.16334,11.16166 -5.68985,11.51649 -7.29883,19.64648 -1.73628,8.71264 -1.81778,16.69682 1.31836,24.80859 0.43635,1.14713 0.89027,2.14086 1.49023,3.51563 0.68175,1.59322 4.1275,6.76421 4.31836,6.95508 1.21814,1.37476 2.88948,3.08686 3.92578,3.8789 v 0.002 c 0.87266,0.68284 3.44532,2.39453 3.44532,2.39453 -0.0454,0.23675 4.7008,2.45854 6.00976,2.79492 6.86317,1.79565 8.77163,2.66633 16.60742,1.7832 16.96256,-1.89362 39.72569,-12.94602 53.04297,-23.14258 4.20885,-3.22288 7.65376,-6.21741 7.46289,-10.74218 -0.21815,-4.807 -1.81879,-8.13867 -4.90039,-12.11719 -3.56337,-4.49741 -6.97187,-4.01504 -13.74414,-2.93164 -12.59913,1.9847 -27.95276,4.2606 -38.27929,6.1543 -1.89079,0.32779 -4.30974,0.67514 -6.69141,0.65624 -1.42719,0 -3.14453,-0.0742 -3.14453,-0.0742 0,0 1.83716,-6.85601 3.98242,-13.58399 2.12719,-6.45483 4.57226,-12.8457 4.57226,-12.8457 0,0 3.02715,-0.45413 5.89063,-0.76367 4.59061,-0.53715 38.44099,-0.73855 41.45898,-1.22071 5.83601,-0.9832 7.21895,-4.36126 6.91016,-11.69922 -0.22726,-6.27273 -2.1818,-10.6245 -7.83594,-11.88085 -1.50901,-0.31903 -4.1999,-0.46289 -6.89062,-0.46289 -11.07198,0.045 -30.7793,0.2539 -30.7793,0.2539 l 5.59961,-18.74609 c 0,0 11.09819,0.13513 19.125,0.0527 5.04499,-0.0545 32.55264,-0.44538 41.04297,-5.60742 5.52688,-3.39583 3.0267,-9.66033 -0.63672,-14.93164 -6.80859,-9.87795 -14.37171,-14.68511 -26.02539,-15.02148 -0.47781,-0.0125 -1.02005,-0.0135 -1.61719,-0.004 z"
       transform="matrix(0.26458333,0,0,0.26458333,0,184.38407)"
       id="path2665"
       inkscape:connector-curvature="0" />
    <path
       style="fill-opacity:1;fill-rule:nonzero;stroke:none;stroke-width:9.09721279"
       d="M 89.1875,0.015625 C 86.989973,0.040382 84.786001,0.09522729 82.574219,0.17773438 66.938914,0.77867927 46.040403,3.9733653 29.496094,8.5253906 17.824198,11.702726 9.8796536,16.800955 4.3164062,26.587891 1.5438504,31.485894 -0.99304864,36.775075 0.38867188,42.173828 1.597656,46.762364 8.1344315,48.355139 13.388672,49.210938 c 5.045068,0.782929 16.533543,1.439073 19.58789,-2.302735 1.318141,-1.611439 1.165074,-3.132408 0.07422,-5.0625 -1.127185,-2.048428 -4.045164,-3.530594 -6.808593,-4.058594 -3.108885,-0.564434 -9.117745,-0.920595 -10.544922,-1.548828 -0.790857,-0.355011 -1.626954,-0.810547 -1.626954,-0.810547 10e-7,0 0.354103,-0.354202 0.681641,-0.654296 0.618126,-0.482495 2.818277,-1.421752 4.236328,-1.767579 1.790774,-0.382374 3.716806,-1.03745 5.66211,-1.574218 13.444599,-3.732662 40.098339,-4.351014 52.30664,-3.914063 47.405888,1.766249 91.528838,12.362937 136.189448,30.744141 43.72435,18.008013 93.44011,48.715351 122.44727,86.087891 10.96287,14.13876 24.71538,37.3376 26.37891,56.92969 1.51804,17.89871 -4.19848,35.03133 -15.125,47.58593 -8.27217,9.45918 -19.20759,16.44327 -31.125,22.06055 -27.15271,12.86415 -60.1787,15.50371 -89.76758,14.7207 -3.88158,-0.10012 -18.49947,-1.4199 -21.96289,-1.92968 -6.00872,-0.98325 -13.64453,-2.44922 -13.64453,-2.44922 l -1.94532,-91.69727 c 0,0 9.21845,0.3286 15.70899,0.71094 16.59883,0.98324 50.90527,6.67191 68.08594,13.5 3.67243,1.43849 7.50036,3.68843 7.8457,7.33008 0.24543,2.78585 -1.96492,5.17114 -4.4375,7.36523 -1.14535,1.05608 -2.38159,1.92022 -3.86328,2.73047 -2.9725,1.58411 -7.97924,4.21475 -8.33399,4.66992 -0.94503,1.24725 -1.01801,3.08711 0.29102,4.125 3.29974,2.55821 14.03494,3.99556 16.89844,3.80469 9.59023,-0.53715 19.05239,-7.03613 24.04296,-15.8125 4.44515,-7.76579 4.89189,-13.70323 1.96485,-22.30664 -3.13612,-9.38638 -12.82717,-18.26254 -23.19922,-23.51562 -12.581,-6.40022 -34.52419,-11.19804 -45.78711,-12.98243 -8.79938,-1.40205 -18.13651,-2.74922 -26.59961,-2.95898 -8.72673,-0.22715 -22.89844,0.18359 -22.89844,0.18359 0,0 -0.27176,-12.44634 -0.82617,-20.71289 C 186.3768,122.11778 182.631,95.424747 170.27734,87.75 c -2.2544,-1.41086 -5.02757,-1.557464 -6.58203,0.554688 -2.39988,3.122721 -4.74346,15.058952 -5.28906,18.181642 -1.00898,5.72651 -4.15546,32.8296 -4.06445,36.96289 0.0816,4.18794 -0.33655,15.67793 -0.58203,16.0332 -0.13625,0.1725 -0.2808,0.2998 -0.48047,0.44531 -0.48176,0.32769 -8.37359,1.72865 -13.45508,2.45704 -10.78105,1.56589 -36.69681,10.04327 -45.050782,13.73046 -11.362882,4.98002 -27.951813,13.72878 -32.587891,25.31836 -3.345196,8.31209 -2.082621,15.29481 2.326172,23.14258 5.672307,10.05098 13.117171,17.89767 21.398437,25.73633 2.963392,2.80407 16.344264,14.0384 19.453124,16.3418 11.22651,8.33934 24.08892,16.40737 37.61524,23.08984 4.40879,2.2032 9.68164,4.69727 9.68164,4.69727 0,0 1.04498,10.62422 2.04492,16.74218 1.21811,7.59281 3.76431,14.22149 10.81836,17.2168 4.30877,1.82083 9.24427,1.55626 13.89844,0.66406 3.84521,-0.72831 6.49197,-2.4498 8.11914,-5.79101 0.60902,-1.24732 1.71797,-5.10644 1.89062,-6.54492 0.36877,-3.21377 0.34375,-7.76563 0.34375,-7.76563 0,0 11.36412,2.60259 19,4.01367 22.22574,4.10601 46.31446,4.4971 67.26758,1.95703 30.90696,-3.7782 66.92286,-15.24841 90.17578,-35.38671 6.27229,-5.41701 16.79827,-18.08071 21.23437,-26.07422 2.59979,-4.65215 5.02817,-9.35879 7.50977,-15.04883 0.49089,-1.15627 3.56252,-10.54371 4.14453,-14.61328 0.29995,-1.76625 2.13715,-15.16694 1.35547,-22.25 h -0.002 c 0.12725,-2.99528 -1.52681,-10.69686 -1.70899,-12.08985 -0.12729,-0.13651 -0.99891,-3.91506 -1.58984,-6.48242 -0.59993,-2.60372 -4.22679,-11.59869 -5.07227,-13.0918 -2.43617,-4.37907 -3.92695,-8.10271 -5.80859,-11.9082 -7.9268,-15.78656 -24.20888,-35.68809 -37.29883,-48.67969 -6.74507,-6.7279 -16.09722,-15.131784 -23.24219,-20.976559 -3.4179,-2.84965 -25.46321,-19.063373 -29.22656,-21.548828 C 284.56901,58.944538 263.29799,46.945684 249.82617,40.445312 231.03654,31.368512 205.32979,21.399409 185.71289,15.472656 153.58437,5.6828174 122.15041,-0.35573006 89.1875,0.015625 Z m 63.46484,191.048825 c 0,0 -0.31236,13.55415 -0.36523,27.28321 -0.13643,25.97412 0.55469,52.34961 0.55469,52.34961 0,0 -9.25316,-3.31316 -14.81641,-5.63477 -16.29889,-6.82809 -38.387839,-20.89518 -49.287109,-29.99023 -2.590749,-2.17588 -11.863729,-11.10637 -13.5,-13.02735 -2.845289,-3.34121 -5.372538,-6.5367 -4.68164,-10.66992 0.681736,-3.95123 8.509674,-7.2385 12.373047,-8.58594 12.817326,-4.61575 35.059652,-8.467 46.904292,-9.73242 9.29025,-1.03782 22.81836,-1.99219 22.81836,-1.99219 z"
       transform="matrix(0.26458333,0,0,0.26458333,0,184.38407)"
       id="path2671"
       inkscape:connector-curvature="0" />
    <path
       style="fill-opacity:1;fill-rule:nonzero;stroke:none;stroke-width:9.09721279"
       d="M 466.56055,28.707031 C 455.91158,28.573282 444.6326,31.39203 436.0957,35.009766 422.942,40.572399 410.86073,48.765233 401.625,58.625 c -9.18119,9.759647 -16.25255,22.105913 -15.49805,35.525391 0.20905,4.297134 1.94451,10.951619 4.08985,14.802729 1.81806,3.25017 5.21815,6.72852 5.97265,10.11524 0.42709,2.03939 0.0359,4.65251 0.12696,7.04687 0.17272,5.46244 2.53629,11.09795 6.62695,14.70313 2.94527,2.57673 5.50028,2.47666 8.52734,0.24609 0.85444,-0.60079 2.16328,-2.13085 2.86328,-3.31445 1.32719,-2.23049 2.5904,-5.3269 3.78125,-6.57422 0.18184,-0.17303 1.02784,0.28287 1.69141,0.76563 0.52728,0.40059 5.53619,1.66452 6.89063,1.7832 2.67258,0.20031 5.51638,0.92053 8.26171,1.14844 8.87207,0.80118 21.04425,-2.0485 28.84375,-5.10743 17.79878,-6.99205 31.5339,-16.99746 45.45118,-31.263667 8.11759,-8.266507 15.24495,-21.876888 12.62695,-34.267578 -1.29993,-6.16354 -4.13605,-10.415282 -9.25391,-14.867187 -2.55439,-2.194092 -8.82614,-5.490415 -13.18945,-6.246094 -1.26357,-0.227414 -2.85442,-0.383288 -3.44531,-0.765625 -0.68179,-0.427843 -1.22831,-1.338238 -1.88281,-2.175781 -3.10886,-3.942123 -9.30738,-7.728314 -13.73438,-9.257813 -4.26391,-1.482272 -8.97402,-2.154049 -13.81445,-2.214844 z m -22.72071,29.007813 c 0,0 -2.88098,2.394272 -5.35351,4.488281 -8.01763,6.882671 -18.6805,17.990337 -24.58008,26.001953 -3.23614,4.4064 -7.08984,10.197266 -7.08984,10.197266 0,0 -0.82744,-1.722123 -1.37305,-3.033203 -3.64524,-9.104051 4.44551,-19.373734 11.80859,-25.673829 4.47247,-3.841927 13.40753,-9.785923 19.49805,-10.978515 2.55436,-0.528114 7.08984,-1.001953 7.08984,-1.001953 z m 47.33399,2.599609 c 1.84419,-0.05236 3.53651,0.346844 5.76367,1.316406 3.4179,1.465815 6.10826,4.596596 6.58984,8.720703 1.4908,12.800429 -13.13596,23.670484 -23.08984,29.242188 -10.13567,5.61725 -21.04411,8.99438 -32.67969,9.77734 v 0.002 c -4.55425,0.32776 -16.55299,0.4542 -16.89843,-0.84766 -0.0909,-0.31869 0.68244,-1.49291 1.71874,-2.74023 1.59081,-2.03925 3.64543,-5.03496 5.68165,-7.693363 8.79035,-11.35287 24.96088,-25.564978 36.39648,-32.210938 3.88157,-2.230563 5.72706,-2.957778 9.83594,-4.177734 2.84071,-0.833083 4.83745,-1.336316 6.68164,-1.388672 z m -57.8711,98.283207 c -3.46373,-0.0281 -5.49919,4.86623 -6.4707,7.39257 -3.08164,7.92061 -5.31731,26.83873 -5.9082,32.71094 -1.83659,17.88049 -3.31857,60.24219 -0.21875,81.82813 1.29074,9.04032 4.26467,14.92275 13.40039,16.8164 3.69978,0.76475 10.43572,0.61831 13.4082,-1.27539 2.59075,-1.62962 4.38902,-4.74335 4.99805,-7.44726 1.65449,-7.52912 1.01802,-18.19799 0.68164,-26.21875 -0.39995,-9.45914 -0.63592,-18.91919 -1.07227,-28.47852 -0.58178,-12.79132 -2.10842,-45.39384 -5.67187,-60.14258 -1.53623,-6.33649 -4.10002,-12.12649 -10.33594,-14.51172 -0.71815,-0.25511 -1.56341,-0.49983 -2.09961,-0.5996 -0.24373,-0.0478 -0.48002,-0.0724 -0.71094,-0.0742 z"
       transform="matrix(0.26458333,0,0,0.26458333,0,184.38407)"
       id="path2673"
       inkscape:connector-curvature="0" />
    <path
       style="fill-opacity:1;fill-rule:nonzero;stroke:none;stroke-width:9.09721279"
       d="m 553.7793,156.97852 c -7.91151,0.0463 -15.38076,0.58089 -21.64453,1.36328 -20.71673,2.56739 -48.4066,9.02345 -60.24219,26.0664 -4.50875,6.51855 -7.17219,16.51516 -5.09961,24.6543 1.18178,4.50652 5.12789,8.58351 9.13672,10.4043 4.02705,1.81175 9.06248,2.73123 13.68945,3.38672 4.50875,0.65548 23.24411,2.24008 35.15234,3.25976 11.372,0.93774 33.40754,3.3599 45.33399,8.33984 1.00906,0.42789 6.14333,2.64045 7.41601,4.19727 0.57268,0.73739 1.25531,1.85593 1.66407,1.97461 0.12759,0.0302 0.30157,-0.0534 0.46484,0.0195 1.10876,0.35513 1.68945,3.79767 1.68945,4.20703 -0.0363,3.19556 -2.39847,5.7441 -4.84375,7.46485 -17.71699,12.56371 -42.03438,16.12336 -63.66015,15.79492 -7.34499,-0.11834 -13.3988,-1.25626 -20.84375,-4.48828 -3.17254,-1.37477 -7.33689,-4.68834 -6.71875,-8.24805 1.19081,-6.91 8.79935,-8.6497 15.08984,-8.04883 3.52702,0.32776 8.11919,1.82256 11.56445,3.16992 13.88089,5.48977 20.20717,10.10462 32.4336,8.23829 4.55422,-0.68278 20.3254,-4.11556 22.4707,-10.625 0.52728,-1.61144 -0.24464,-3.31385 -1.4082,-4.51563 -1.65441,-1.67516 -11.15347,-5.38843 -13.74414,-6.32617 -9.31756,-3.29575 -26.93504,-6.34697 -36.73438,-6.71094 -12.86279,-0.45521 -29.90735,1.94866 -37.86133,12.85547 -5.0087,6.84631 -5.13614,16.21463 -1.02734,23.44336 5.59053,9.84155 16.66352,17.47061 25.72656,21.9043 15.32621,7.42904 33.74136,10.94246 50.74024,9.07617 9.74475,-1.11065 18.2086,-3.09526 26.85351,-7.28321 8.29032,-4.00584 17.38089,-11.55327 21.53516,-20.53906 5.54502,-12.09025 5.13599,-28.04958 -1,-39.45703 -4.02697,-7.52912 -8.46224,-11.7337 -15.99805,-15.08398 -8.11763,-3.64169 -18.73666,-5.5916 -29.57226,-7.06641 -0.60911,-0.0911 -0.77198,-0.11814 -1.43555,-0.18164 l -49.95117,-5.92773 c -0.66357,-0.0635 -0.80114,-0.0914 -1.4375,-0.21876 -2.17251,-0.47342 -12.28027,-1.56428 -8.74414,-5.40624 1.00902,-1.12891 4.06341,-1.92186 5.83594,-2.43165 22.5894,-6.18172 51.26915,-5.4801 75.0039,-6.81835 5.29051,-0.3278 17.35409,-1.04704 23.17188,-2.9043 5.53591,-1.72978 10.1531,-5.6626 11.42578,-11.77149 0.6545,-3.25927 -0.90988,-4.77991 -3.95508,-6.40039 -13.53034,-7.20429 -33.07124,-9.46914 -50.47656,-9.36718 z"
       transform="matrix(0.26458333,0,0,0.26458333,0,184.38407)"
       id="path2675"
       inkscape:connector-curvature="0" />
    <path
       style="fill-opacity:1;fill-rule:nonzero;stroke:none;stroke-width:9.09721279"
       d="m 690.71289,136.82812 c -3.40813,-0.16514 -5.42493,2.29495 -5.44336,6.15626 -0.0272,3.2866 0.745,6.77416 1.57227,10.2246 2.59075,10.6246 6.05443,22.06919 8.89062,33.04883 2.57246,9.81423 5.85431,24.32565 7.12696,34.64063 0.46359,3.5506 0.70989,6.88297 1.24609,10.99804 0.31774,2.58562 0.77138,15.4755 0.53515,15.83985 -0.50906,0.93781 -1.63616,0.88358 -2.89062,-0.12695 -0.92723,-0.76479 -1.72686,-1.96695 -2.57227,-3.20508 -6.90863,-10.22397 -13.93625,-21.52201 -21.2539,-32.73828 -6.54505,-10.00547 -16.41722,-24.38003 -23.92578,-34.98633 -2.9362,-4.15151 -6.6722,-8.19366 -11.90821,-8.65821 -7.6086,-0.62819 -11.12503,10.49677 -13.57031,17.30664 -8.55398,23.91659 -15.29148,59.42253 -13.77344,84.94141 0.44546,7.83863 2.61808,23.33419 12.19922,26.85742 h 0.002 c 3.7361,1.38403 6.0805,1.96713 9.16211,0.57422 4.33602,-1.98474 5.48216,-5.86284 6.60937,-10.58789 1.72702,-7.23776 2.01787,-21.93331 2.23633,-27.92383 0.0182,-0.99235 0.9176,-36.58823 2.22656,-44.19922 0.19998,-1.04696 0.50853,-2.65879 1.28125,-2.43164 1.01813,0.30958 1.59973,0.92777 2.04492,1.57422 2.03622,2.93148 15.19101,29.07076 22.83594,42.43555 2.24534,3.90573 15.41589,26.75657 23.43359,31.30859 7.32673,4.18791 17.96289,0.31988 23.29883,-4.63281 3.39984,-3.15908 7.48972,-9.43242 9.48047,-14.09375 5.42695,-12.67298 6.32849,-31.40085 5.25586,-44.25586 -1.11814,-13.22835 -3.56418,-24.73526 -7.60938,-36.87109 -1.13631,-3.54153 -6.20852,-16.17865 -7.49023,-18.66406 -3.76335,-7.35614 -16.68102,-28.54109 -26.42578,-31.98243 -0.92721,-0.33288 -1.78773,-0.51071 -2.57422,-0.54883 z"
       transform="matrix(0.26458333,0,0,0.26458333,0,184.38407)"
       id="path2677"
       inkscape:connector-curvature="0" />
    <path
       style="fill-opacity:1;fill-rule:nonzero;stroke:none;stroke-width:9.09721279"
       d="m 915.71875,158.30664 c -4.19066,-0.21849 -13.41598,10.85293 -14.83398,12.61914 -18.79881,23.2156 -35.56364,52.12076 -35.59766,81.33594 0,9.23157 2.39014,20.65801 6.82617,30.11719 0.28914,0.56447 0.28896,0.71035 0.0527,1.34765 -14.22626,37.27231 -19.39777,53.74026 -24.51563,91.18555 -1.45444,10.70646 -3.23722,28.95259 4.2168,38.64844 3.70889,4.90718 8.05486,7.56417 13,10.16797 3.80885,2.03928 5.07158,2.65084 8.21679,0.80273 1.29083,-0.82847 1.64544,-1.15742 2.18164,-2.19531 0.39085,-0.76475 8.02738,-36.55276 10.70899,-50.20899 1.78174,-9.2042 9.4807,-38.82057 12.98047,-49.81836 2.02719,-6.37288 4.79101,-14.49414 4.79101,-14.49414 l 0.002,-0.002 c 0,0 2.69959,0.13849 5.01757,0.19141 17.14428,0.40059 34.62443,-6.32779 49.52344,-16.21485 14.57171,-9.66863 25.28983,-20.72074 33.13477,-36.07031 6.61769,-12.86415 9.68037,-29.76139 8.21679,-44.7832 -1.25446,-12.57287 -6.10913,-28.07748 -17.2539,-35.40625 -7.02679,-4.64996 -13.49842,-3.72095 -20.70703,0.0117 -9.0903,4.72509 -12.81802,8.06652 -21.22657,16.10546 -3.99972,3.81464 -17.89701,18.2807 -21.50585,22.35938 -3.56346,4.01492 -6.63771,7.73961 -10.91016,13.375 -7.82676,10.2604 -19.67969,26.88476 -19.67969,26.88476 0,0 -0.68066,-3.95215 -0.82617,-7.08398 -0.0636,-1.09247 1.36295,-9.61468 1.93555,-11.43555 3.56337,-11.66233 5.14514,-16.89674 12.43554,-29.61523 6.4814,-11.38012 15.96138,-25.12687 18.07032,-38.61914 0.62721,-4.0969 -0.0543,-9.00476 -4.25391,-9.20508 z m 59.27148,41.60352 c 1.08782,-10e-4 2.10608,0.57449 2.62305,1.24023 4.21792,5.56267 3.46415,18.06412 1.98242,24.02734 -3.34526,13.11909 -10.42754,24.33557 -20.59961,32.50196 -6.6723,5.33503 -19.1711,11.79798 -28.36132,13.3457 -4.31796,0.72832 -8.5172,0.8922 -8.8086,0.37305 -0.1454,-0.24582 4.02714,-7.57462 5.41797,-9.62305 6.47233,-9.11316 13.23538,-20.87506 20.42578,-31.14453 5.38144,-7.74762 16.65416,-22.6705 25.38086,-29.99024 0.61019,-0.52238 1.28676,-0.72982 1.93945,-0.73046 z"
       transform="matrix(0.26458333,0,0,0.26458333,0,184.38407)"
       id="path2679"
       inkscape:connector-curvature="0" />
  </g>
</svg>
